<svg width="219" height="202" viewBox="0 0 219 202" fill="none" xmlns="http://www.w3.org/2000/svg">
<path d="M76.3372 0H46.5378C45.7411 0 45.0952 0.613835 45.0952 1.37104V29.6942C45.0952 30.4514 45.7411 31.0653 46.5378 31.0653H76.3372C77.1339 31.0653 77.7797 30.4514 77.7797 29.6942V1.37104C77.7797 0.613835 77.1339 0 76.3372 0Z" fill="#F0F0F0"/>
<path d="M70.9869 7.66785H70.9501C69.8434 7.66785 68.9464 7.73266 68.9464 7.81741C69.5324 7.9562 70.1378 8.00667 70.7403 7.96698C70.6407 8.06669 70.4938 8.21128 70.3102 8.40572L68.7366 10.1008L63.4911 15.8243L61.2828 14.4034C60.8894 14.1591 60.5012 13.9048 60.1392 13.6805L60.0186 13.6107L59.9294 13.7104C57.5952 16.3029 55.5285 18.6212 54.0545 20.2964L52.3288 22.2906C52.1064 22.5225 51.9063 22.7727 51.7308 23.0384C51.9758 22.8347 52.2054 22.6148 52.4179 22.3803L54.2171 20.4559C55.7121 18.8356 57.7735 16.5771 60.0763 14.0295L61.1254 14.6826L63.4491 16.1483L63.5645 16.2231L63.6537 16.1234L68.8992 10.2354L70.4151 8.48548C70.6144 8.25615 70.7508 8.08664 70.8347 7.98692H70.861C70.8165 8.5643 70.8678 9.14474 71.0131 9.70696C71.1023 9.70696 71.1705 8.87436 71.1757 7.83736V7.68779L70.9869 7.66785Z" fill="#E0E0E0"/>
<path d="M153.797 20.7351H169.785C169.785 23.726 168.857 26.6505 167.116 29.1421C165.376 31.6337 162.9 33.5818 160 34.7421C157.099 35.9024 153.903 36.2235 150.812 35.6651C147.72 35.1066 144.871 33.6935 142.621 31.6028C140.371 29.512 138.819 26.8367 138.162 23.9118C137.504 20.9869 137.769 17.9426 138.924 15.1604C140.079 12.3781 142.071 9.98149 144.653 8.27088C147.234 6.56026 150.289 5.61168 153.435 5.54398L153.797 20.7351Z" fill="#F0F0F0"/>
<path d="M158.104 17.0308L157.747 1.8347C162.018 1.83302 166.13 3.37056 169.255 6.13727C172.247 8.96843 173.977 12.7854 174.086 16.7965L158.104 17.0308Z" fill="#EBEBEB"/>
<path d="M160.307 83.2894C160.217 86.0813 160.385 94.5968 160.385 94.5968L163.008 92.104H177.774C178.022 92.1026 178.26 92.008 178.435 91.8408C178.61 91.6736 178.708 91.4474 178.708 91.2115V83.3343C178.708 83.0989 178.609 82.8732 178.434 82.7068C178.259 82.5403 178.022 82.4468 177.774 82.4468H161.246C161.005 82.4453 160.773 82.532 160.598 82.689C160.423 82.846 160.319 83.061 160.307 83.2894Z" fill="#EBEBEB"/>
<path d="M167.85 87.2729C167.849 87.4029 167.807 87.5296 167.73 87.6372C167.654 87.7447 167.545 87.8283 167.419 87.8774C167.292 87.9264 167.153 87.9387 167.019 87.9128C166.885 87.8868 166.762 87.8237 166.666 87.7315C166.569 87.6393 166.504 87.522 166.478 87.3945C166.451 87.267 166.465 87.1349 166.518 87.015C166.571 86.895 166.659 86.7925 166.773 86.7204C166.887 86.6483 167.021 86.6098 167.157 86.6098C167.249 86.6098 167.339 86.627 167.423 86.6604C167.508 86.6938 167.584 86.7427 167.649 86.8043C167.713 86.866 167.764 86.9391 167.798 87.0195C167.833 87.1 167.85 87.1861 167.85 87.2729Z" fill="#E0E0E0"/>
<path d="M170.189 87.2729C170.189 87.4043 170.148 87.5327 170.071 87.6418C169.994 87.751 169.885 87.8359 169.757 87.886C169.629 87.936 169.489 87.9489 169.353 87.9229C169.218 87.8969 169.094 87.8332 168.996 87.74C168.899 87.6468 168.833 87.5281 168.807 87.3992C168.78 87.2702 168.795 87.1367 168.848 87.0157C168.902 86.8946 168.992 86.7914 169.108 86.7191C169.223 86.6469 169.358 86.6088 169.497 86.6098C169.588 86.6098 169.678 86.627 169.763 86.6604C169.847 86.6938 169.924 86.7427 169.988 86.8043C170.052 86.866 170.103 86.9391 170.138 87.0195C170.172 87.0999 170.19 87.1861 170.189 87.2729Z" fill="#E0E0E0"/>
<path d="M172.529 87.2729C172.529 87.4041 172.488 87.5323 172.411 87.6413C172.334 87.7504 172.225 87.8353 172.098 87.8855C171.97 87.9357 171.83 87.9488 171.695 87.9233C171.559 87.8977 171.435 87.8345 171.338 87.7418C171.24 87.6491 171.174 87.5309 171.147 87.4023C171.12 87.2736 171.134 87.1403 171.186 87.0192C171.239 86.898 171.329 86.7944 171.443 86.7216C171.558 86.6487 171.693 86.6098 171.831 86.6098C172.016 86.6098 172.193 86.6797 172.324 86.804C172.455 86.9284 172.529 87.0971 172.529 87.2729Z" fill="#E0E0E0"/>
<path d="M40.0702 127.601C40.4636 122.75 44.2193 115.242 48.8353 113.143C51.1612 112.104 53.7289 111.65 56.2924 111.825C58.8558 111.999 61.3292 112.797 63.4754 114.14C66.3657 115.995 68.5583 118.822 71.7213 120.218C77.9791 122.98 85.4067 119.066 89.7762 113.991C94.1456 108.915 96.8838 102.624 101.841 98.0368C104.226 95.8303 107.051 94.0991 110.15 92.945C113.249 91.7908 116.559 91.2369 119.887 91.3159C123.214 91.3948 126.491 92.105 129.526 93.4047C132.56 94.7045 135.291 96.5675 137.557 98.8844C140.919 102.324 143.122 106.617 145.824 110.546C148.525 114.474 151.993 118.258 156.687 119.729C163.134 121.748 170.409 118.782 174.973 114.001C179.536 109.219 181.907 102.943 183.89 96.7705C185.873 90.5983 187.609 84.2317 191.234 78.7774C194.858 73.3232 200.844 68.8062 207.631 68.6417V127.422L40.0702 127.601Z" fill="#F0F0F0"/>
<path d="M218.746 201.413C218.746 201.483 169.775 201.543 109.378 201.543C48.9821 201.543 0 201.483 0 201.413C0 201.343 48.9611 201.284 109.378 201.284C169.796 201.284 218.746 201.363 218.746 201.413Z" fill="#263238"/>
<path d="M177.223 76.0304C177.329 76.0174 177.435 75.9974 177.538 75.9706C177.685 75.9221 177.818 75.8432 177.929 75.7398C178.039 75.6363 178.124 75.5108 178.178 75.3723C178.242 75.1602 178.261 74.9384 178.236 74.7192C178.236 74.4749 178.236 74.2206 178.236 73.9165C178.236 73.3332 178.236 72.6651 178.236 71.9223C178.236 68.896 178.209 64.5286 178.188 59.1442C178.188 56.442 178.188 53.4905 178.188 50.3197C178.188 48.7292 178.188 47.089 178.188 45.3989C178.188 44.5563 178.188 43.6988 178.188 42.8313C178.188 42.4075 178.188 41.9389 178.188 41.54C178.154 41.3457 178.051 41.1683 177.897 41.0369C177.742 40.9055 177.546 40.828 177.339 40.8171H152.874C152.636 40.817 152.408 40.905 152.238 41.0623C152.067 41.2196 151.968 41.4339 151.961 41.6597C151.961 42.1582 151.961 42.6568 151.961 43.1853V52.1344C151.961 56.0182 151.961 59.7624 151.961 63.3321C151.961 66.9018 151.961 70.3119 151.961 73.4578V74.6394C151.945 74.8269 151.945 75.0153 151.961 75.2028C151.991 75.3722 152.076 75.5288 152.202 75.6515C152.327 75.7769 152.487 75.8652 152.664 75.9058C152.851 75.9323 153.041 75.9406 153.23 75.9307H158.859L172.303 75.9756L175.975 76.0005H176.924H177.249C177.249 76.0005 177.139 76.0005 176.924 76.0005H175.975L172.303 76.0254L158.859 76.0653H154.405H153.23C153.024 76.077 152.816 76.067 152.612 76.0354C152.394 75.9889 152.197 75.8811 152.045 75.7263C151.887 75.5731 151.781 75.3786 151.741 75.1679C151.725 74.9687 151.725 74.7688 151.741 74.5696V73.388C151.741 70.2172 151.741 66.827 151.741 63.2623C151.741 59.6976 151.741 55.9484 151.741 52.0646C151.741 50.1269 151.741 48.1526 151.741 46.1417V43.1155C151.741 42.6169 151.741 42.1183 151.741 41.5799C151.75 41.2872 151.879 41.0095 152.101 40.8056C152.322 40.6018 152.618 40.4879 152.926 40.4881H177.354C177.617 40.5038 177.866 40.6035 178.061 40.771C178.257 40.9385 178.386 41.1638 178.43 41.4104C178.466 41.9089 178.43 42.2978 178.43 42.7415V45.3091C178.43 46.9992 178.43 48.6395 178.43 50.2299C178.43 53.4008 178.43 56.3522 178.43 59.0544C178.43 64.4389 178.398 68.8063 178.388 71.8325C178.388 72.5853 178.388 73.2534 178.388 73.8268C178.388 74.1159 178.388 74.3851 178.388 74.6294C178.408 74.8545 178.383 75.0813 178.314 75.2975C178.257 75.4427 178.166 75.5732 178.046 75.6788C177.927 75.7844 177.784 75.8621 177.627 75.9058C177.507 75.9817 177.367 76.0248 177.223 76.0304Z" fill="#263238"/>
<path d="M166.774 47.6623C163.207 46.9095 159.289 48.7492 158.287 52.2441C157.322 55.5994 159.656 59.5181 163.197 60.4304C164.943 60.8282 166.782 60.6039 168.367 59.8001C169.951 58.9962 171.17 57.6685 171.794 56.068C173.064 52.4834 170.645 48.6196 166.995 47.4778C166.575 47.3432 166.407 47.9764 166.816 48.106C169.927 49.1879 172.161 52.3787 171.228 55.5844C170.346 58.6257 166.596 60.6598 163.396 59.8521C160.317 59.0744 158.329 55.9334 158.722 53.0069C159.2 49.4222 163.192 47.2784 166.743 47.8617C166.874 47.8617 166.932 47.6972 166.8 47.6723L166.774 47.6623Z" fill="#263238"/>
<path d="M163.228 60.3257C165.037 60.8332 166.982 60.6478 168.649 59.8092C170.315 58.9706 171.57 57.5455 172.146 55.8387C173.258 52.1992 170.777 48.2606 167.047 47.1787C166.187 46.9294 165.877 48.136 166.68 48.4351C169.827 49.6117 171.925 52.8673 170.687 56.0631C169.575 58.9049 166.302 60.2759 163.265 59.9518C163.024 59.9219 162.992 60.2809 163.213 60.3407L163.228 60.3257Z" fill="#A03651"/>
<path d="M172.319 66.2885C172.319 66.3583 169.077 66.4182 165.069 66.4182C161.062 66.4182 157.82 66.3583 157.82 66.2885C157.82 66.2187 161.067 66.1589 165.069 66.1589C169.072 66.1589 172.319 66.2187 172.319 66.2885Z" fill="#A03651"/>
<path d="M172.319 68.3775C172.319 68.4523 169.077 68.5071 165.069 68.5071C161.062 68.5071 157.82 68.4523 157.82 68.3775C157.82 68.3027 161.067 68.2479 165.069 68.2479C169.072 68.2479 172.319 68.3077 172.319 68.3775Z" fill="#A03651"/>
<path d="M73.4942 18.9901V65.087C73.4956 65.5785 73.7016 66.0494 74.0673 66.397C74.4329 66.7445 74.9285 66.9403 75.4455 66.9416H140.049C140.566 66.9403 141.061 66.7445 141.427 66.397C141.793 66.0494 141.999 65.5785 142 65.087V17.3948C142 17.1469 141.948 16.9016 141.847 16.6733C141.745 16.445 141.597 16.2383 141.41 16.0654C141.223 15.8925 141.002 15.7569 140.759 15.6667C140.516 15.5765 140.257 15.5335 139.996 15.5401L75.3931 17.1355C74.8851 17.1498 74.403 17.3513 74.0486 17.6974C73.6942 18.0436 73.4954 18.5072 73.4942 18.9901Z" fill="#E0E0E0"/>
<path d="M136.23 27.0568C136.23 27.1067 135.406 26.663 133.843 26.1943C131.627 25.5375 129.283 25.367 126.987 25.6958C125.419 25.9317 123.9 26.4029 122.487 27.0917C120.873 27.9161 119.38 28.9368 118.044 30.128C116.586 31.3544 115.138 32.7404 113.47 34.0217C111.769 35.4006 109.779 36.4202 107.632 37.0131C106.519 37.2861 105.361 37.3521 104.222 37.2075C103.13 37.0509 102.069 36.7382 101.075 36.2802C99.255 35.3777 97.4898 34.379 95.7874 33.2888C94.2621 32.327 92.5802 31.6111 90.8095 31.17C89.2657 30.814 87.6714 30.6978 86.0886 30.826C83.7785 31.0087 81.543 31.6908 79.5527 32.8202C78.1522 33.6378 77.4912 34.2461 77.4545 34.2062C77.5955 34.0433 77.7537 33.8947 77.9266 33.7625C78.4016 33.3569 78.9104 32.9884 79.4478 32.6607C81.1284 31.6294 83.0098 30.9294 84.9804 30.6022C86.951 30.2751 88.9707 30.3274 90.9196 30.7562C92.7396 31.188 94.4703 31.9077 96.0392 32.885C97.7313 33.9536 99.4823 34.9355 101.285 35.8265C103.208 36.7578 105.419 37.0036 107.516 36.5195C109.593 35.9382 111.518 34.9478 113.166 33.6129C114.813 32.3615 116.266 30.9805 117.745 29.7541C119.119 28.549 120.653 27.5199 122.308 26.6929C123.767 26.0211 125.329 25.5751 126.935 25.3717C129.278 25.0603 131.665 25.2807 133.901 26.0149C134.505 26.2104 135.093 26.4505 135.658 26.7328C135.86 26.8218 136.052 26.9304 136.23 27.0568Z" fill="#455A64"/>
<path d="M95.074 37.8856H88.7533V54.1286H95.074V37.8856Z" fill="#455A64"/>
<path d="M121.889 37.8856H115.568V54.1286H121.889V37.8856Z" fill="#455A64"/>
<path d="M130.822 28.3481H124.501V54.1286H130.822V28.3481Z" fill="#455A64"/>
<path d="M86.8964 49.0134H80.5756V54.4776H86.8964V49.0134Z" fill="#455A64"/>
<path d="M104.012 45.2194H97.6916V54.1286H104.012V45.2194Z" fill="#455A64"/>
<path d="M112.951 43.1753H106.63V54.1287H112.951V43.1753Z" fill="#455A64"/>
<path d="M95.3258 56.0431C95.3258 56.1777 93.7994 56.2824 91.911 56.2824C90.0227 56.2824 88.4962 56.1777 88.4962 56.0431C88.4962 55.9085 90.0279 55.8038 91.911 55.8038C93.7942 55.8038 95.3258 55.9085 95.3258 56.0431Z" fill="#263238"/>
<path d="M87.4629 56.0431C87.4629 56.1777 85.9312 56.2824 84.0481 56.2824C82.165 56.2824 80.6333 56.1777 80.6333 56.0431C80.6333 55.9085 82.165 55.8038 84.0481 55.8038C85.9312 55.8038 87.4629 55.9085 87.4629 56.0431Z" fill="#263238"/>
<path d="M132.07 56.0431C132.07 56.1777 130.339 56.2824 128.21 56.2824C126.08 56.2824 124.349 56.1777 124.349 56.0431C124.349 55.9085 126.075 55.8038 128.21 55.8038C130.345 55.8038 132.07 55.9085 132.07 56.0431Z" fill="#263238"/>
<path d="M118.82 56.2824C120.952 56.2824 122.681 56.1753 122.681 56.0431C122.681 55.911 120.952 55.8038 118.82 55.8038C116.688 55.8038 114.96 55.911 114.96 56.0431C114.96 56.1753 116.688 56.2824 118.82 56.2824Z" fill="#263238"/>
<path d="M112.945 56.0431C112.945 56.1777 111.419 56.2824 109.531 56.2824C107.642 56.2824 106.121 56.1777 106.121 56.0431C106.121 55.9085 107.647 55.8038 109.531 55.8038C111.414 55.8038 112.945 55.9085 112.945 56.0431Z" fill="#263238"/>
<path d="M103.713 56.0431C103.713 56.1777 102.182 56.2824 100.299 56.2824C98.4154 56.2824 96.8837 56.1777 96.8837 56.0431C96.8837 55.9085 98.4102 55.8038 100.299 55.8038C102.187 55.8038 103.713 55.9085 103.713 56.0431Z" fill="#263238"/>
<path d="M124.312 76.2896H124.417C124.525 76.2985 124.63 76.3273 124.727 76.3744C124.888 76.4527 125.02 76.5763 125.104 76.7284C125.206 76.944 125.244 77.1818 125.214 77.4164C125.214 78.4733 125.214 80.0239 125.241 82.0131C125.267 84.0024 125.241 86.4553 125.267 89.2921C125.267 90.7146 125.267 92.2303 125.267 93.8389V95.6687C125.297 95.8951 125.253 96.1249 125.141 96.3268C125.017 96.5352 124.811 96.689 124.569 96.7555C124.336 96.7955 124.098 96.8089 123.861 96.7954H122.487L122.581 96.7057C122.581 98.1415 122.581 99.697 122.581 101.302V101.567L122.398 101.367L118.112 96.7755L118.196 96.8104H74.0187H70.9291C70.756 96.8104 70.6039 96.8104 70.4046 96.8104C70.2128 96.7878 70.0313 96.7154 69.8801 96.601C69.7284 96.4812 69.6141 96.3243 69.5496 96.1473C69.5207 96.0567 69.5048 95.9627 69.5024 95.8681V85.2488C69.5024 82.7809 69.5024 80.3529 69.5024 77.9798V77.0824C69.5085 76.9154 69.5601 76.7527 69.652 76.6103C69.7439 76.4679 69.8731 76.3506 70.0269 76.2697C70.19 76.1943 70.3702 76.1583 70.5515 76.165H75.5556L100.928 76.1949L118.028 76.2348L122.681 76.2597H118.028L100.928 76.2996L75.5556 76.3295H70.5567C70.4226 76.3205 70.2884 76.3463 70.1685 76.4043C70.0507 76.4619 69.9508 76.548 69.879 76.6539C69.8072 76.7597 69.7659 76.8817 69.7594 77.0076V85.2488C69.7594 87.7183 69.7594 90.2294 69.7594 92.782V95.6687C69.7461 95.8175 69.7585 95.9674 69.7961 96.1124C69.8387 96.2419 69.9208 96.3565 70.0322 96.4414C70.1447 96.5282 70.2814 96.5819 70.4256 96.596H74.0135H118.191H118.243L118.275 96.6309L122.55 101.238L122.366 101.302C122.366 99.692 122.366 98.1415 122.366 96.7057V96.6109H123.856C124.075 96.626 124.295 96.6177 124.512 96.586C124.706 96.5313 124.871 96.4083 124.973 96.242C125.078 96.0683 125.126 95.8685 125.11 95.6687C125.11 95.4593 125.11 95.2499 125.11 95.0455V93.819C125.11 92.2087 125.11 90.693 125.11 89.2721C125.11 86.4353 125.11 83.9924 125.11 81.9932C125.11 79.9939 125.11 78.4534 125.11 77.3964C125.144 77.1702 125.113 76.9394 125.02 76.7284C124.942 76.5818 124.82 76.4604 124.669 76.3794C124.556 76.3307 124.436 76.3004 124.312 76.2896Z" fill="#263238"/>
<path d="M72.4399 93.111C72.8805 91.6503 73.3946 90.1596 74.4174 88.9929C75.4403 87.8263 77.1031 87.0436 78.6505 87.4225C81.1001 88.0208 82.2804 91.1218 84.7825 91.411C86.1673 91.5904 87.5153 90.8027 88.4071 89.7807C89.2988 88.7586 89.8496 87.5172 90.5315 86.3605C91.5806 84.6206 92.9601 83.0102 94.8433 82.1377C96.7264 81.2653 99.1498 81.2603 100.797 82.4917C103.619 84.6056 103.225 89.2721 106.231 91.1368C106.962 91.5736 107.813 91.7941 108.676 91.7701C109.539 91.7461 110.375 91.4788 111.078 91.0021C112.416 90.0599 113.097 88.4346 114.503 87.592C116.129 86.5949 118.385 86.9987 119.859 88.1753C121.333 89.3519 122.099 91.1667 122.377 92.9714" fill="#A03651"/>
<path d="M121.364 84.7253C121.322 84.7167 121.281 84.7015 121.244 84.6804L120.897 84.5258C120.445 84.343 119.979 84.193 119.502 84.0771C117.732 83.716 115.896 83.7673 114.152 84.2267C112.948 84.5367 111.777 84.9505 110.653 85.4631C109.431 86.0016 108.167 86.6597 106.819 87.3228C105.413 88.0452 103.951 88.662 102.444 89.1674C100.815 89.7155 99.0858 89.9445 97.3611 89.8405C95.6454 89.6863 93.9648 89.2828 92.3779 88.6439C90.8305 88.0556 89.409 87.3626 88.0556 86.7145C85.3595 85.3983 82.8102 84.3464 80.5651 84.0273C78.7845 83.7186 76.9505 83.8456 75.2357 84.3962C74.6143 84.6183 74.017 84.8971 73.4523 85.2288C73.4835 85.1981 73.5188 85.1712 73.5572 85.149L73.8719 84.9347C74.2884 84.6809 74.7314 84.4687 75.1938 84.3015C76.9222 83.7052 78.7843 83.5471 80.5966 83.8428C82.8993 84.1469 85.4591 85.1939 88.1658 86.5001C89.5244 87.1433 90.9459 87.8313 92.4776 88.4096C94.04 89.0355 95.694 89.4306 97.3821 89.5812C99.0711 89.6839 100.765 89.46 102.36 88.9231C103.854 88.4286 105.304 87.8235 106.698 87.1134C108.051 86.4503 109.321 85.8022 110.559 85.2687C111.698 84.7578 112.885 84.3489 114.105 84.0472C115.878 83.5948 117.743 83.5725 119.528 83.9824C120.18 84.1313 120.8 84.3823 121.364 84.7253Z" fill="#263238"/>
<path d="M97.9591 81.5445C97.9643 81.6489 97.9365 81.7525 97.8792 81.8418C97.822 81.9311 97.7379 82.002 97.6379 82.0455C97.5378 82.089 97.4263 82.103 97.3178 82.0857C97.2093 82.0684 97.1087 82.0206 97.0291 81.9485C96.9494 81.8763 96.8943 81.7832 96.8708 81.681C96.8473 81.5789 96.8566 81.4724 96.8974 81.3752C96.9382 81.2781 97.0087 81.1949 97.0997 81.1362C97.1908 81.0775 97.2983 81.046 97.4083 81.0459C97.5495 81.047 97.6851 81.0991 97.7874 81.1917C97.8897 81.2843 97.9511 81.4104 97.9591 81.5445Z" fill="#455A64"/>
<path d="M78.1942 83.7631C78.1942 83.8666 78.1619 83.9678 78.1013 84.0539C78.0408 84.14 77.9548 84.2071 77.8542 84.2467C77.7535 84.2863 77.6428 84.2967 77.5359 84.2765C77.4291 84.2563 77.331 84.2064 77.2539 84.1332C77.1769 84.06 77.1245 83.9667 77.1032 83.8652C77.082 83.7636 77.0929 83.6584 77.1345 83.5627C77.1762 83.4671 77.2468 83.3853 77.3374 83.3278C77.428 83.2703 77.5345 83.2396 77.6434 83.2396C77.7167 83.236 77.79 83.2471 77.8585 83.2721C77.9271 83.2972 77.9893 83.3356 78.0412 83.3849C78.0931 83.4343 78.1336 83.4934 78.1599 83.5586C78.1863 83.6237 78.1979 83.6934 78.1942 83.7631Z" fill="#455A64"/>
<path d="M117.525 83.768C117.525 83.8726 117.492 83.9747 117.431 84.0616C117.37 84.1485 117.283 84.2163 117.181 84.2563C117.08 84.2963 116.968 84.3067 116.86 84.2864C116.752 84.266 116.653 84.2156 116.575 84.1417C116.498 84.0678 116.445 83.9736 116.423 83.8711C116.402 83.7686 116.413 83.6624 116.455 83.5658C116.497 83.4692 116.568 83.3867 116.66 83.3286C116.751 83.2706 116.859 83.2396 116.969 83.2396C117.116 83.2396 117.258 83.2952 117.362 83.3943C117.466 83.4935 117.525 83.6279 117.525 83.768Z" fill="#455A64"/>
<path d="M154.778 157.695H159.693C161.985 157.695 166.9 151.966 140.232 152.619C122.702 153.048 121.548 155.511 122.434 156.947C122.649 157.273 122.954 157.536 123.316 157.708C123.678 157.879 124.082 157.952 124.485 157.919C124.915 157.889 125.482 157.884 126.153 157.889L125.734 159.644L115.977 200.635L117.677 200.496L124.884 177.931L138.632 177.432L139.419 201.423H141.575L142.1 177.308H142.168L143.621 177.258L155.806 176.809L163.029 201.428H165.096L154.778 157.695ZM125.928 174.715L130.738 159.644L131.262 157.939C133.277 157.939 135.632 157.894 137.992 157.894L138.517 174.346L125.928 174.715ZM144.056 174.177H143.532L142.194 174.217L142.551 157.68H150.23L154.951 173.838L144.056 174.177Z" fill="#455A64"/>
<path d="M110.847 198.596V193.297L120.84 193.237L120.918 201.159L120.299 201.204C117.546 201.373 106.278 201.702 104.432 201.154C102.376 200.551 110.847 198.596 110.847 198.596Z" fill="#A03651"/>
<path d="M104.196 200.67C104.196 200.76 107.931 200.835 112.541 200.835C117.152 200.835 120.887 200.76 120.887 200.67C120.887 200.581 117.152 200.511 112.541 200.511C107.931 200.511 104.196 200.581 104.196 200.67Z" fill="#263238"/>
<path d="M110.674 199.678C110.758 199.638 110.674 199.359 110.469 199.08C110.265 198.801 109.997 198.656 109.945 198.721C109.892 198.786 110.013 199.015 110.212 199.274C110.412 199.534 110.59 199.723 110.674 199.678Z" fill="#263238"/>
<path d="M110.034 200.027C110.123 199.997 110.076 199.683 109.882 199.354C109.688 199.025 109.426 198.821 109.357 198.856C109.289 198.891 109.41 199.185 109.593 199.489C109.777 199.793 109.945 200.062 110.034 200.027Z" fill="#263238"/>
<path d="M117.876 200.635C117.918 200.635 118.065 200.521 118.28 200.286C118.545 199.984 118.838 199.706 119.156 199.454C119.469 199.218 119.842 199.064 120.236 199.005C120.541 198.965 120.761 199.005 120.761 198.965C120.761 198.925 120.593 198.801 120.236 198.776C119.771 198.773 119.319 198.922 118.957 199.2C118.608 199.465 118.314 199.789 118.091 200.157C117.918 200.426 117.839 200.611 117.876 200.635Z" fill="#263238"/>
<path d="M110.643 198.681C110.595 198.756 110.763 198.94 111.052 199.04C111.34 199.14 111.576 199.105 111.608 199.04C111.639 198.975 111.419 198.846 111.167 198.756C110.915 198.666 110.69 198.606 110.643 198.681Z" fill="#263238"/>
<path d="M110.8 198.173C110.8 198.257 111.057 198.337 111.393 198.337C111.728 198.337 112.001 198.272 111.996 198.188C111.991 198.103 111.723 198.023 111.398 198.018C111.073 198.013 110.81 198.083 110.8 198.173Z" fill="#263238"/>
<path d="M131.929 198.596V193.297L141.921 193.237L142 201.159L141.381 201.204C138.627 201.373 127.36 201.702 125.513 201.154C123.462 200.551 131.929 198.596 131.929 198.596Z" fill="#A03651"/>
<path d="M125.283 200.67C125.283 200.76 129.023 200.835 133.628 200.835C138.234 200.835 141.974 200.76 141.974 200.67C141.974 200.581 138.239 200.511 133.628 200.511C129.017 200.511 125.283 200.581 125.283 200.67Z" fill="#263238"/>
<path d="M131.761 199.678C131.845 199.638 131.761 199.359 131.556 199.08C131.352 198.801 131.084 198.656 131.032 198.721C130.979 198.786 131.105 199.015 131.299 199.274C131.493 199.534 131.677 199.723 131.761 199.678Z" fill="#263238"/>
<path d="M131.121 200.027C131.21 199.997 131.163 199.683 130.969 199.354C130.775 199.025 130.512 198.821 130.444 198.856C130.376 198.891 130.497 199.185 130.68 199.489C130.864 199.793 131.037 200.062 131.121 200.027Z" fill="#263238"/>
<path d="M138.963 200.635C139.005 200.635 139.152 200.521 139.367 200.286C139.632 199.984 139.925 199.706 140.243 199.454C140.556 199.218 140.928 199.064 141.323 199.005C141.627 198.965 141.848 199.005 141.848 198.965C141.848 198.925 141.675 198.801 141.323 198.776C140.858 198.773 140.406 198.922 140.043 199.2C139.695 199.465 139.401 199.789 139.178 200.157C139.005 200.426 138.926 200.611 138.963 200.635Z" fill="#263238"/>
<path d="M131.729 198.681C131.682 198.756 131.855 198.94 132.138 199.04C132.422 199.14 132.663 199.105 132.694 199.04C132.726 198.975 132.506 198.846 132.254 198.756C132.002 198.666 131.782 198.606 131.729 198.681Z" fill="#263238"/>
<path d="M131.887 198.173C131.887 198.257 132.144 198.337 132.479 198.337C132.815 198.337 133.088 198.272 133.083 198.188C133.077 198.103 132.81 198.023 132.485 198.018C132.159 198.013 131.897 198.083 131.887 198.173Z" fill="#263238"/>
<path d="M160.558 103.536C160.149 103.446 159.64 103.496 159.394 103.172C159.147 102.848 159.326 102.469 159.457 102.125C159.896 101.022 159.909 99.8064 159.494 98.6949C159.196 97.962 158.671 97.3325 157.988 96.8901C158.088 96.7987 158.175 96.6947 158.245 96.581C158.439 96.2488 158.536 95.8738 158.528 95.4942C158.541 95.1564 158.479 94.8198 158.347 94.5063C158.214 94.1928 158.013 93.9093 157.757 93.6744C157.532 93.4807 157.24 93.3734 156.936 93.3734C156.633 93.3734 156.34 93.4807 156.115 93.6744C156.032 93.749 155.966 93.839 155.92 93.9389C155.875 94.0388 155.851 94.1464 155.851 94.2552C155.851 94.364 155.875 94.4717 155.92 94.5716C155.966 94.6715 156.032 94.7615 156.115 94.8361C156.225 94.9216 156.359 94.9758 156.5 94.9925C156.641 95.0093 156.784 94.9879 156.913 94.9308C157.086 94.846 157.112 94.7413 157.112 94.7413C157.047 94.8002 156.973 94.8489 156.892 94.8859C156.773 94.9257 156.644 94.9351 156.52 94.9132C156.396 94.8914 156.28 94.839 156.184 94.7613C156.115 94.6937 156.062 94.6134 156.028 94.5253C155.993 94.4372 155.979 94.3433 155.985 94.2496C155.991 94.1558 156.017 94.0643 156.062 93.9807C156.107 93.8972 156.17 93.8234 156.247 93.7642C156.447 93.6054 156.703 93.5235 156.964 93.5346C157.225 93.5456 157.472 93.6488 157.658 93.824C157.883 94.0448 158.059 94.3076 158.172 94.5959C158.286 94.8842 158.336 95.1917 158.319 95.4992C158.326 95.8398 158.235 96.176 158.056 96.4713C157.986 96.5819 157.899 96.6826 157.799 96.7705C157.519 96.61 157.215 96.4906 156.897 96.4165C156.22 96.2619 155.486 96.3018 154.867 95.9977C154.351 95.7172 153.958 95.2695 153.76 94.7364C153.76 94.6815 153.76 94.6217 153.76 94.5619C153.834 93.6952 153.959 92.833 154.133 91.9793C154.249 91.1502 154.226 90.3088 154.064 89.4865C153.944 88.785 153.655 88.1192 153.222 87.5402C152.788 86.9611 152.22 86.4842 151.562 86.1462C151.111 85.9348 150.616 85.8207 150.113 85.8121C149.609 85.8034 149.11 85.9005 148.651 86.0963C148.405 86.2031 148.179 86.3461 147.98 86.5201L147.87 86.6298C147.56 86.776 147.286 86.9833 147.067 87.238L145.451 101.088L157.301 107.973C158.223 107.944 159.135 107.776 160.002 107.475C160.435 107.318 160.823 107.068 161.136 106.744C161.449 106.421 161.679 106.032 161.807 105.61C161.917 105.178 161.848 104.723 161.616 104.337C161.384 103.951 161.006 103.665 160.558 103.536ZM152.779 89.0328C152.572 88.4861 152.253 87.9841 151.84 87.5561C151.426 87.1281 150.927 86.7827 150.372 86.54C149.598 86.2522 148.737 86.2665 147.974 86.5799C148.187 86.425 148.419 86.2976 148.667 86.201C149.113 86.0295 149.593 85.9514 150.073 85.972C150.554 85.9927 151.024 86.1116 151.452 86.3207C152.073 86.6547 152.606 87.118 153.011 87.6758C153.416 88.2336 153.683 88.8714 153.792 89.5414C153.938 90.3351 153.956 91.1456 153.844 91.9444C153.776 92.5676 153.592 93.1958 153.508 93.8639C153.444 93.3908 153.405 92.9149 153.393 92.438C153.391 91.2783 153.183 90.1272 152.779 89.0328Z" fill="#263238"/>
<path d="M149.27 89.0129C149.199 88.7475 149.037 88.5123 148.809 88.3448C148.36 88.152 147.851 88.1306 147.387 88.285L147.361 85.1042L140.846 80.0687L137.337 81.7987C136.438 82.243 135.686 82.9149 135.163 83.7403C134.641 84.5656 134.37 85.5122 134.378 86.4752C134.405 89.0378 134.473 92.5128 134.651 94.4871C134.955 97.8773 138.564 98.1565 138.564 98.1565C138.564 98.1565 138.722 99.3779 138.826 100.589C138.826 100.589 138.034 110.625 141.748 110.536C144.486 110.471 146.327 105.002 147.104 102.125L147.518 100.545V100.46V100.395L147.439 90.8775L147.55 90.9872C147.668 91.0825 147.813 91.1427 147.967 91.1604C148.12 91.1781 148.276 91.1526 148.415 91.0869C148.612 91.0037 148.789 90.8836 148.936 90.7336C149.083 90.5837 149.197 90.4071 149.27 90.2144C149.409 89.8248 149.409 89.4025 149.27 89.0129Z" fill="#FFBE9D"/>
<path d="M135.207 88.9531C135.208 89.0102 135.22 89.0667 135.244 89.1191C135.268 89.1716 135.303 89.2189 135.347 89.2584C135.39 89.2979 135.441 89.3287 135.498 89.349C135.554 89.3694 135.614 89.3788 135.674 89.3768C135.795 89.3768 135.911 89.3311 135.997 89.2498C136.082 89.1684 136.13 89.0581 136.13 88.9431C136.13 88.828 136.082 88.7177 135.997 88.6364C135.911 88.555 135.795 88.5093 135.674 88.5093C135.612 88.5072 135.55 88.5173 135.493 88.5389C135.435 88.5604 135.383 88.593 135.339 88.6346C135.295 88.6763 135.261 88.726 135.238 88.7808C135.215 88.8356 135.205 88.8942 135.207 88.9531Z" fill="#263238"/>
<path d="M134.751 88.4944C134.808 88.5492 135.139 88.265 135.632 88.2301C136.125 88.1953 136.497 88.4096 136.55 88.3448C136.602 88.28 136.508 88.2152 136.345 88.1155C136.125 87.9826 135.865 87.9229 135.606 87.946C135.347 87.9672 135.103 88.0669 134.908 88.2301C134.766 88.3548 134.719 88.4695 134.751 88.4944Z" fill="#263238"/>
<path d="M140.505 88.8035C140.505 88.9185 140.553 89.0289 140.639 89.1102C140.724 89.1915 140.84 89.2372 140.961 89.2372C141.082 89.2372 141.198 89.1915 141.284 89.1102C141.37 89.0289 141.418 88.9185 141.418 88.8035C141.418 88.6885 141.37 88.5781 141.284 88.4968C141.198 88.4155 141.082 88.3698 140.961 88.3698C140.84 88.3698 140.724 88.4155 140.639 88.4968C140.553 88.5781 140.505 88.6885 140.505 88.8035Z" fill="#263238"/>
<path d="M140.211 88.3398C140.269 88.3947 140.599 88.1155 141.092 88.0756C141.586 88.0357 141.958 88.2551 142.01 88.1952C142.063 88.1354 141.968 88.0606 141.806 87.9609C141.584 87.8334 141.326 87.7759 141.068 87.7964C140.809 87.817 140.565 87.9148 140.369 88.0756C140.227 88.1903 140.18 88.3149 140.211 88.3398Z" fill="#263238"/>
<path d="M138.527 92.3582C138.262 92.4107 137.991 92.4308 137.72 92.4181C137.648 92.4273 137.576 92.4273 137.505 92.4181C137.458 92.4087 137.414 92.3889 137.376 92.3603C137.339 92.3317 137.309 92.2951 137.29 92.2535C137.24 92.0888 137.251 91.9128 137.321 91.755L137.62 90.7578C137.848 89.9066 138.144 89.0733 138.506 88.265C138.347 89.1294 138.119 89.981 137.825 90.8127L137.51 91.8098C137.451 91.926 137.431 92.0564 137.452 92.1837C137.478 92.2685 137.594 92.2834 137.72 92.2834C137.991 92.2721 138.263 92.2972 138.527 92.3582Z" fill="#263238"/>
<path d="M140.232 92.7371C140.264 92.7022 138.811 93.5697 137.809 93.5946C137.994 93.8282 138.258 93.9953 138.556 94.0686C138.854 94.1419 139.169 94.1172 139.451 93.9985C139.724 93.9205 139.957 93.7473 140.102 93.5134C140.247 93.2796 140.293 93.0023 140.232 92.7371Z" fill="#FAFAFA"/>
<path d="M138.543 98.1615C140.238 98.0552 141.866 97.4894 143.233 96.5312C143.233 96.5312 142.225 99.0489 138.643 98.9891L138.543 98.1615Z" fill="#EB996E"/>
<path d="M133.859 86.8841C135.433 87.0885 136.56 86.6846 138.082 86.3207C139.603 85.9567 141.05 85.0045 141.58 83.5985C141.763 84.5279 142.213 85.3909 142.881 86.0913C143.023 86.2409 143.296 86.3805 143.406 86.216C143.429 86.1675 143.441 86.1148 143.441 86.0614C143.441 86.0081 143.429 85.9553 143.406 85.9069L143.091 84.7203C143.63 85.6558 144.33 86.4985 145.163 87.2131C146.034 87.8762 148.683 88.9032 148.279 87.9161C148.179 87.6668 149.066 79.979 141.376 79.8643C133.686 79.7497 133.859 86.8841 133.859 86.8841Z" fill="#263238"/>
<path d="M147.487 89.0727C147.46 89.0727 147.618 88.8982 147.948 88.9082C148.117 88.9209 148.278 88.9799 148.412 89.078C148.545 89.1762 148.646 89.3092 148.702 89.4609C148.758 89.6126 148.765 89.7764 148.725 89.9324C148.684 90.0883 148.597 90.2296 148.473 90.3391C148.327 90.4606 148.142 90.5325 147.948 90.5435C147.618 90.5435 147.466 90.3939 147.487 90.374C147.508 90.354 147.676 90.4089 147.927 90.374C148.084 90.3475 148.225 90.2695 148.327 90.1537C148.429 90.038 148.485 89.8918 148.485 89.7408C148.485 89.5898 148.429 89.4436 148.327 89.3278C148.225 89.2121 148.084 89.1341 147.927 89.1076C147.665 89.0378 147.502 89.1126 147.487 89.0727Z" fill="#EB996E"/>
<path d="M160.254 112.954L161.576 112.699C161.576 112.699 158.696 100.395 148.688 100.395H147.508V100.455V100.54L147.093 102.12C146.317 104.997 144.471 110.466 141.738 110.531C138.27 110.615 138.732 101.896 138.805 100.719C138.719 100.729 138.634 100.751 138.554 100.784C138.554 100.784 127.669 101.357 122.817 110.431L131.21 116.259L133.261 115.083C133.261 115.083 133.932 127.916 132.778 131.41C131.478 135.359 129.463 139.731 129.463 139.731C138.69 139.048 149.186 139.442 160.375 140.424L152.911 114.375C155.419 114.248 157.893 113.769 160.254 112.954Z" fill="#A03651"/>
<path d="M151.274 119.101C151.274 119.101 151.206 119.216 151.038 119.38C150.796 119.607 150.531 119.809 150.246 119.983C149.292 120.574 148.169 120.87 147.031 120.831C145.892 120.792 144.795 120.419 143.888 119.764C143.615 119.572 143.365 119.351 143.143 119.106C142.986 118.931 142.918 118.822 142.934 118.812C142.949 118.802 143.306 119.171 143.983 119.615C144.88 120.202 145.935 120.534 147.024 120.572C148.113 120.61 149.19 120.352 150.13 119.829C150.87 119.44 151.237 119.101 151.274 119.101Z" fill="#263238"/>
<path d="M156.121 125.956C156.024 125.758 155.949 125.551 155.895 125.338C155.748 124.889 155.57 124.341 155.371 123.643C154.919 122.212 154.322 120.233 153.577 118.064C152.832 115.895 152.16 113.931 151.657 112.515C151.426 111.847 151.227 111.284 151.069 110.835C150.983 110.635 150.921 110.426 150.886 110.212C150.999 110.401 151.094 110.599 151.169 110.805C151.337 111.189 151.568 111.752 151.84 112.455C152.391 113.856 153.11 115.806 153.834 117.984C154.558 120.163 155.156 122.147 155.554 123.593C155.754 124.316 155.911 124.904 156.005 125.313C156.07 125.522 156.108 125.738 156.121 125.956Z" fill="#263238"/>
<path d="M152.874 106.278C152.403 106.268 151.943 106.15 151.531 105.934C151.084 105.797 150.676 105.563 150.34 105.251C150.794 105.335 151.231 105.487 151.636 105.7C152.077 105.832 152.494 106.027 152.874 106.278Z" fill="#263238"/>
<path d="M155.455 110.546C155.485 110.044 155.608 109.551 155.816 109.09C155.942 108.6 156.155 108.135 156.446 107.714C156.409 108.215 156.285 108.707 156.079 109.17C155.954 109.659 155.743 110.124 155.455 110.546Z" fill="#263238"/>
<path d="M146.469 113.617C146.584 113.16 146.774 112.722 147.03 112.321C147.206 111.88 147.45 111.467 147.754 111.094C147.555 112.024 147.113 112.892 146.469 113.617Z" fill="#263238"/>
<path d="M144.843 116.319C144.375 116.087 143.967 115.76 143.647 115.362C143.26 115.019 142.959 114.598 142.766 114.13C143.521 114.809 144.223 115.541 144.864 116.319H144.843Z" fill="#263238"/>
<path d="M151.337 115.91C151.064 116.45 150.683 116.935 150.214 117.336C149.825 117.735 149.39 118.093 148.919 118.403L148.531 118.627L148.835 118.333C148.908 118.263 148.955 118.233 148.971 118.243C148.987 118.253 148.971 118.308 148.929 118.393L148.845 118.323C149.029 118.114 149.496 117.68 150.02 117.157C150.418 116.704 150.859 116.287 151.337 115.91Z" fill="#263238"/>
<path d="M152.748 124.809C152.228 124.726 151.735 124.532 151.305 124.241C150.828 124.024 150.41 123.705 150.083 123.309C150.563 123.494 151.019 123.732 151.442 124.017C151.91 124.228 152.349 124.494 152.748 124.809Z" fill="#263238"/>
<path d="M146.175 122.775C145.997 123.253 145.733 123.696 145.394 124.087C145.128 124.526 144.788 124.92 144.387 125.253C144.562 124.775 144.827 124.331 145.168 123.942C145.434 123.503 145.774 123.109 146.175 122.775Z" fill="#263238"/>
<path d="M141.864 123.179C141.454 123.036 141.081 122.814 140.767 122.526C140.206 122.112 139.792 121.728 139.839 121.674C139.886 121.619 140.363 121.908 140.935 122.322C141.507 122.735 141.895 123.119 141.864 123.179Z" fill="#263238"/>
<path d="M139.529 117.107C139.571 117.167 139.162 117.516 138.611 117.889C138.061 118.263 137.562 118.518 137.562 118.458C137.562 118.398 137.924 118.049 138.475 117.675C138.782 117.42 139.141 117.226 139.529 117.107Z" fill="#263238"/>
<path d="M138.638 114.031C138.58 114.075 138.202 113.697 137.793 113.188C137.384 112.68 137.106 112.226 137.164 112.191C137.221 112.156 137.604 112.53 138.008 113.038C138.412 113.547 138.701 113.991 138.638 114.031Z" fill="#263238"/>
<path d="M147.99 105.854C148.078 105.421 148.256 105.009 148.515 104.643C148.695 104.236 148.955 103.866 149.281 103.551C149.192 103.985 149.013 104.399 148.756 104.767C148.577 105.173 148.317 105.542 147.99 105.854Z" fill="#263238"/>
<path d="M136.303 106.373C135.82 106.238 135.366 106.023 134.961 105.74C134.51 105.525 134.103 105.237 133.759 104.887C134.245 105.016 134.7 105.231 135.102 105.52C135.554 105.733 135.961 106.022 136.303 106.373Z" fill="#263238"/>
<path d="M130.182 104.882C130.25 104.917 130.056 105.346 129.752 105.829C129.448 106.313 129.149 106.687 129.08 106.647C129.012 106.607 129.211 106.188 129.516 105.7C129.82 105.211 130.119 104.847 130.182 104.882Z" fill="#263238"/>
<path d="M136.55 138.545C135.659 138.198 134.846 137.69 134.158 137.049C134.62 137.188 135.051 137.408 135.427 137.697C135.851 137.915 136.231 138.202 136.55 138.545Z" fill="#263238"/>
<path d="M154.08 136.76C154.138 136.81 153.755 137.288 153.225 137.837C152.695 138.385 152.229 138.784 152.176 138.734C152.124 138.684 152.501 138.206 153.031 137.657C153.561 137.109 154.028 136.71 154.08 136.76Z" fill="#263238"/>
<path d="M142.168 138.63C142.147 137.965 142.147 137.3 142.168 136.635C142.236 136.635 142.425 137.059 142.425 137.632C142.466 137.983 142.375 138.336 142.168 138.63Z" fill="#263238"/>
<path d="M148.368 138.724C147.906 138.606 147.472 138.406 147.088 138.136C146.658 137.938 146.272 137.664 145.95 137.328C146.842 137.643 147.663 138.117 148.368 138.724Z" fill="#263238"/>
<path d="M160.385 140.429C160.281 140.44 160.175 140.44 160.071 140.429L159.168 140.36L155.864 140.08C153.073 139.851 149.218 139.522 144.948 139.457C140.678 139.392 136.802 139.482 134.006 139.582L130.691 139.716L129.789 139.751C129.684 139.765 129.578 139.765 129.474 139.751L129.783 139.706L130.685 139.627C131.462 139.562 132.595 139.487 133.995 139.407C136.796 139.258 140.668 139.128 144.953 139.208C149.239 139.288 153.094 139.632 155.885 139.906C157.275 140.05 158.403 140.175 159.179 140.27L160.076 140.385C160.181 140.387 160.284 140.402 160.385 140.429Z" fill="#263238"/>
<g opacity="0.2">
<path d="M150.875 110.212L153.498 126.789C153.498 126.789 155.927 126.789 156.372 126.101L150.875 110.212Z" fill="black"/>
<path d="M150.875 110.212L153.498 126.789C153.498 126.789 155.927 126.789 156.372 126.101L150.875 110.212Z" fill="black"/>
</g>
<path d="M135.648 139.422C129.474 139.876 126.101 139.472 119.308 140.08C117.013 140.368 114.902 141.427 113.356 143.066C111.811 144.704 110.934 146.815 110.884 149.015L109.693 197.779H122.172L124.144 154.06L127.816 154.504C127.344 170.876 129.143 197.779 129.143 197.779L143.002 197.136L142.21 155.147C142.21 155.147 160.847 156.348 160.38 140.444C160.385 140.429 145.708 138.739 135.648 139.422Z" fill="#263238"/>
<path d="M139.377 139.298C139.066 139.364 138.75 139.414 138.433 139.447C137.825 139.537 136.943 139.662 135.863 139.851C134.595 140.02 133.354 140.333 132.165 140.783C131.479 141.072 130.844 141.459 130.282 141.93C129.683 142.438 129.198 143.055 128.855 143.745C128.228 145.108 127.923 146.585 127.963 148.072C127.963 149.448 128.016 150.7 128.005 151.747C127.995 152.794 127.958 153.641 127.916 154.239C127.916 154.534 127.874 154.763 127.853 154.913C127.85 154.992 127.837 155.07 127.816 155.147C127.794 154.845 127.794 154.542 127.816 154.239C127.816 153.651 127.816 152.809 127.816 151.747C127.816 150.685 127.753 149.443 127.717 148.072C127.661 146.546 127.968 145.028 128.614 143.63C128.973 142.911 129.482 142.269 130.108 141.741C130.692 141.254 131.353 140.857 132.065 140.564C133.278 140.116 134.545 139.814 135.837 139.667C136.922 139.502 137.814 139.402 138.428 139.347C138.732 139.323 138.952 139.303 139.136 139.298C139.216 139.285 139.297 139.285 139.377 139.298Z" fill="#455A64"/>
<path d="M123.043 151.009C123.312 151.488 123.539 151.989 123.72 152.504C123.987 152.992 124.132 153.531 124.144 154.08C123.875 153.6 123.648 153.1 123.468 152.584C123.198 152.098 123.052 151.558 123.043 151.009Z" fill="#455A64"/>
<path d="M124.06 150.012C124.296 150.653 124.419 151.327 124.422 152.006C124.504 152.692 124.41 153.386 124.15 154.03C124.066 154.03 124.207 153.123 124.15 152.036C124.092 150.949 123.966 150.012 124.06 150.012Z" fill="#455A64"/>
<path d="M141.271 150.934C141.589 151.589 141.8 152.287 141.895 153.003C142.07 153.701 142.184 154.411 142.236 155.127C141.919 154.47 141.714 153.77 141.628 153.053C141.446 152.357 141.327 151.649 141.271 150.934Z" fill="#455A64"/>
<path d="M142.519 150.924C142.832 152.322 142.748 153.774 142.278 155.132C142.283 154.429 142.331 153.726 142.42 153.028C142.414 152.325 142.447 151.623 142.519 150.924Z" fill="#455A64"/>
<path d="M121.852 194.917C121.852 194.987 119.119 195.047 115.746 195.047C112.374 195.047 109.641 194.987 109.641 194.917C109.641 194.847 112.374 194.787 115.746 194.787C119.119 194.787 121.852 194.842 121.852 194.917Z" fill="#455A64"/>
<path d="M142.834 194.698C142.834 194.767 139.723 194.827 135.889 194.827C132.055 194.827 128.944 194.767 128.944 194.698C128.944 194.628 132.055 194.568 135.889 194.568C139.723 194.568 142.834 194.628 142.834 194.698Z" fill="#455A64"/>
<path d="M158.728 147.728H158.555H158.03H156.037L148.693 147.763H143.631C142.701 147.76 141.773 147.861 140.867 148.062C139.912 148.269 139.058 148.772 138.438 149.493C137.851 150.299 137.538 151.256 137.541 152.235C137.489 153.232 137.604 154.274 137.646 155.336C137.702 157.457 137.763 159.642 137.83 161.892C138.097 170.866 138.318 178.998 138.396 184.886C138.438 187.827 138.449 190.211 138.449 191.866C138.449 192.677 138.449 193.31 138.449 193.765C138.449 193.97 138.449 194.129 138.449 194.264C138.457 194.32 138.457 194.377 138.449 194.433C138.442 194.377 138.442 194.32 138.449 194.264C138.449 194.139 138.449 193.98 138.449 193.765C138.449 193.312 138.449 192.678 138.412 191.866C138.375 190.206 138.328 187.827 138.27 184.886C138.139 179.003 137.893 170.871 137.625 161.892C137.562 159.649 137.505 157.46 137.447 155.341C137.405 154.289 137.295 153.247 137.352 152.215C137.352 151.187 137.685 150.184 138.307 149.344C138.961 148.586 139.865 148.059 140.872 147.848C141.799 147.645 142.748 147.544 143.699 147.549H148.761L156.105 147.599L158.098 147.629H158.623C158.661 147.658 158.696 147.692 158.728 147.728Z" fill="#455A64"/>
<path opacity="0.2" d="M126.342 154.309C126.342 154.309 125.86 148.401 128.194 145.006L127.821 154.479L126.342 154.309Z" fill="black"/>
<path d="M127.349 148.691C127.304 148.697 127.258 148.697 127.213 148.691L126.804 148.621C126.442 148.556 125.917 148.456 125.23 148.381C124.403 148.285 123.564 148.332 122.754 148.521C122.253 148.647 121.781 148.858 121.359 149.144C120.897 149.471 120.528 149.9 120.284 150.396C119.759 151.443 119.696 152.754 119.665 154.13C119.633 155.506 119.591 156.992 119.549 158.547C119.46 161.658 119.366 165.078 119.266 168.668C119.046 175.837 118.841 182.328 118.694 187.055C118.61 189.388 118.537 191.287 118.49 192.624C118.458 193.267 118.437 193.775 118.422 194.119C118.422 194.279 118.422 194.408 118.395 194.513C118.402 194.558 118.402 194.603 118.395 194.648C118.387 194.603 118.387 194.558 118.395 194.513C118.395 194.408 118.395 194.279 118.395 194.119C118.395 193.75 118.395 193.242 118.395 192.624C118.422 191.282 118.464 189.388 118.511 187.05C118.637 182.323 118.815 175.832 119.004 168.658C119.114 165.068 119.214 161.653 119.308 158.542C119.355 156.987 119.402 155.506 119.45 154.125C119.497 152.744 119.549 151.408 120.121 150.316C120.385 149.797 120.779 149.348 121.27 149.01C121.709 148.716 122.202 148.503 122.723 148.381C123.553 148.196 124.413 148.162 125.256 148.282C125.944 148.371 126.468 148.491 126.83 148.566L127.234 148.666C127.307 148.671 127.355 148.686 127.349 148.691Z" fill="#455A64"/>
<path d="M126.384 111.084C126.384 111.084 113.213 123.643 110.7 126.45C108.555 128.848 109.955 133.37 111.749 133.564C113.543 133.759 142.582 133.385 142.582 133.385L142.199 127.741C142.199 127.741 123.389 127.821 122.838 127.492C122.287 127.163 133.717 116.179 133.717 116.179L126.384 111.084Z" fill="#FFBE9D"/>
<path d="M161.214 112.724C161.214 112.724 165.216 124.256 165.699 125.617C166.181 126.978 168.668 132.747 163.947 133.23C159.226 133.714 133.89 133.23 133.89 133.23L132.007 127.402C132.007 127.402 156.493 127.342 156.372 126.101C156.252 124.859 152.653 114.444 152.653 114.444L161.214 112.724Z" fill="#FFBE9D"/>
<path d="M107.747 109.13L116.848 133.091L158.743 133.076L158.455 131.904L142.734 131.356L134.997 108.761L107.747 109.13Z" fill="#263238"/>
<path d="M126.421 120.038C126.427 120.308 126.351 120.574 126.203 120.804C126.054 121.034 125.84 121.219 125.584 121.336C125.329 121.454 125.043 121.5 124.761 121.468C124.48 121.436 124.213 121.328 123.994 121.157C123.775 120.985 123.612 120.758 123.524 120.501C123.437 120.244 123.429 119.969 123.501 119.708C123.573 119.447 123.723 119.211 123.931 119.029C124.14 118.846 124.4 118.724 124.679 118.677C125.1 118.641 125.518 118.763 125.844 119.018C126.17 119.273 126.377 119.639 126.421 120.038Z" fill="#FAFAFA"/>
<path d="M180.412 132.567H81.4411H80.3658H79.2957V201.363H81.4411V136.62H180.412V201.413H205.711V136.62V132.567H180.412Z" fill="#455A64"/>
<path d="M58.639 198.676V193.526L48.9349 193.466L48.851 201.169L49.4542 201.209C52.1346 201.373 63.0924 201.707 64.8759 201.164C66.8849 200.576 58.639 198.676 58.639 198.676Z" fill="#A03651"/>
<path d="M65.1066 200.695C65.1066 200.78 61.4768 200.85 56.9971 200.85C52.5175 200.85 48.8877 200.78 48.8877 200.695C48.8877 200.611 52.5175 200.536 56.9971 200.536C61.4768 200.536 65.1066 200.606 65.1066 200.695Z" fill="#263238"/>
<path d="M58.8121 199.728C58.7334 199.688 58.8121 199.414 59.0062 199.15C59.2002 198.886 59.473 198.736 59.5307 198.796C59.5884 198.856 59.4625 199.085 59.2684 199.334C59.0744 199.584 58.8908 199.768 58.8121 199.728Z" fill="#263238"/>
<path d="M59.4311 200.067C59.3471 200.037 59.3891 199.733 59.5832 199.414C59.7773 199.095 60.0238 198.915 60.1077 198.95C60.1916 198.985 60.0605 199.264 59.8822 199.564C59.7038 199.863 59.5412 200.097 59.4311 200.067Z" fill="#263238"/>
<path d="M51.8094 200.66C51.7727 200.685 51.6258 200.551 51.416 200.321C51.1612 200.026 50.8766 199.756 50.5662 199.514C50.2629 199.283 49.9012 199.132 49.5171 199.075C49.2182 199.035 49.0293 199.075 48.9926 199.035C48.9559 198.995 49.1552 198.876 49.5171 198.856C49.9696 198.846 50.4106 198.991 50.7603 199.264C51.0974 199.522 51.3819 199.836 51.5996 200.192C51.7727 200.456 51.8461 200.635 51.8094 200.66Z" fill="#263238"/>
<path d="M58.8384 198.761C58.8908 198.836 58.723 199.01 58.445 199.11C58.1669 199.21 57.9204 199.17 57.9204 199.085C57.9204 199 58.104 198.9 58.3453 198.816C58.5866 198.731 58.7912 198.686 58.8384 198.761Z" fill="#263238"/>
<path d="M58.6862 198.262C58.6862 198.347 58.4397 198.422 58.1092 198.427C57.7787 198.432 57.5217 198.362 57.527 198.277C57.5322 198.193 57.7945 198.118 58.1092 198.113C58.4239 198.108 58.681 198.178 58.6862 198.262Z" fill="#263238"/>
<path d="M86.8176 45.0798L86.9068 43.5193C87.0667 42.6555 87.1352 41.7787 87.1114 40.9019C87.1101 40.4663 87.0284 40.0343 86.8701 39.6256C86.6965 39.1075 86.4495 38.6144 86.1357 38.1598C86.0573 38.0848 86.0061 37.988 85.9894 37.8835C85.9726 37.7789 85.9913 37.672 86.0427 37.5783C86.0941 37.4845 86.1755 37.4086 86.2752 37.3617C86.3749 37.3148 86.4877 37.2992 86.5973 37.3172C87.0589 37.4319 88.0031 38.4739 88.4333 40.0294C88.8634 41.5849 89.9649 39.2816 90.3793 38.449C90.7937 37.6164 92.2205 35.0987 92.5877 35.0189C93.1122 34.8992 93.3692 35.4327 92.9286 36.2553C92.488 37.0779 91.355 39.6306 91.8376 39.82C92.1798 39.7336 92.5376 39.7183 92.8867 39.7751C92.9417 39.7867 92.9917 39.8139 93.0301 39.853C93.0685 39.8922 93.0935 39.9415 93.1017 39.9945C93.1223 40.2387 93.1734 40.4797 93.2538 40.7124C93.2538 40.7124 93.9043 40.513 94.0669 40.7773C94.1874 41.0517 94.26 41.3431 94.2819 41.6398C94.2819 41.6398 94.775 41.4354 95.0373 41.5949C95.5986 41.9439 94.9901 42.6768 94.9901 42.6768C93.6525 44.5069 92.193 46.2538 90.6206 47.9067L86.8072 44.9901" fill="#FFBE9D"/>
<path d="M40.1592 44.9751L40.0963 64.8627L49.0503 65.2565L49.3073 60.4205C49.3073 60.4205 52.4966 61.0238 53.3201 58.2069C53.8446 56.4121 53.7135 42.5172 53.7135 42.5172L40.1592 44.9751Z" fill="#FFBE9D"/>
<path d="M53.2467 39.4461C50.5138 40.2837 49.8581 40.5678 48.6307 40.6576C47.4032 40.7473 39.0944 40.7573 38.3338 45.2094C38.2314 45.0001 38.1523 44.7812 38.0978 44.5563C38.0364 44.1199 38.0032 43.6804 37.9981 43.2401C37.8664 43.4441 37.7836 43.6731 37.7555 43.9109C37.7274 44.1487 37.7547 44.3895 37.8355 44.6162C37.8565 44.7132 37.8864 44.8082 37.9247 44.9003C37.867 44.8505 37.8145 44.7956 37.7516 44.7458C37.45 44.4921 37.091 44.3079 36.7025 44.2073C36.4035 44.1375 36.2094 44.1525 36.1779 44.2073C36.6664 44.4076 37.1293 44.6601 37.5575 44.9602C37.8356 45.1896 38.0745 45.4587 38.2656 45.7579C38.2656 45.7579 38.2656 45.7977 38.2656 45.8177C38.2656 45.8376 36.4769 45.0698 36.949 48.1509C37.4211 51.232 39.535 53.8495 39.7973 58.8949C39.7973 58.8949 47.2092 59.7325 48.531 57.0253L49.6378 53.9193C49.6378 53.9193 47.8543 53.6401 48.0642 52.279C48.3527 50.3895 49.8686 50.3446 51.0016 51.1822L52.3025 47.8717C52.3025 47.8717 55.5966 45.8177 55.7855 44.5065C55.9743 43.1953 55.9533 38.6035 53.2467 39.4461Z" fill="#263238"/>
<path d="M15.3272 194.827L14.0159 200.391L23.0748 201.458L23.4 195.944L15.3272 194.827Z" fill="#A03651"/>
<path d="M19.4187 195.101C19.4135 195.96 19.3151 196.815 19.1249 197.654C19.0223 198.501 18.8308 199.336 18.5532 200.147C18.6628 198.435 18.9527 196.738 19.4187 195.082V195.101Z" fill="#263238"/>
<path d="M23.1115 200.865C22.6703 200.851 22.2314 200.8 21.8001 200.71L18.6528 200.212C17.4201 200.017 16.3133 199.823 15.5055 199.653C15.0695 199.585 14.6423 199.473 14.2309 199.319C14.6725 199.327 15.1121 199.379 15.5423 199.474L18.6895 199.972C19.917 200.167 21.029 200.361 21.8368 200.531C22.274 200.595 22.7017 200.707 23.1115 200.865Z" fill="#263238"/>
<path d="M28.7661 107.375L11.9807 196.956L26.3427 197.729C26.3427 197.729 41.5965 120.512 43.8363 120.322C44.7753 120.238 45.153 197.101 45.9031 196.956C46.6532 196.812 61.4244 197.205 61.4244 197.205C61.4244 197.205 59.4259 106.238 59.4626 106.238L28.7661 107.375Z" fill="#263238"/>
<path d="M49.984 118.438C49.984 118.508 47.5081 119.071 44.4238 119.694C41.3395 120.317 38.8217 120.766 38.8059 120.691C38.7902 120.617 41.2818 120.058 44.3661 119.435C47.4504 118.812 49.9683 118.368 49.984 118.438Z" fill="#455A64"/>
<path d="M27.4075 192.469C27.4075 192.544 24.1606 192.504 20.1583 192.389C16.156 192.275 12.9143 192.115 12.9143 192.045C12.9143 191.975 16.1613 192.01 20.1636 192.125C24.1659 192.24 27.4075 192.389 27.4075 192.469Z" fill="#455A64"/>
<path d="M61.3299 192.479C61.3299 192.549 57.8207 192.509 53.5037 192.384C49.1867 192.26 45.6827 192.105 45.6827 192.035C45.6827 191.966 49.1867 192.005 53.5089 192.125C57.8312 192.245 61.3299 192.389 61.3299 192.479Z" fill="#455A64"/>
<path d="M35.9367 120.921C36.0101 120.921 32.4589 136.915 28.0003 156.608C23.5416 176.301 19.8698 192.26 19.7964 192.245C19.7229 192.23 23.2741 176.256 27.7328 156.553C32.1914 136.85 35.858 120.906 35.9367 120.921Z" fill="#455A64"/>
<path d="M53.5666 192.255C53.5606 192.193 53.5606 192.132 53.5666 192.07C53.5666 191.936 53.5666 191.756 53.5352 191.527C53.5352 191.028 53.4827 190.335 53.4408 189.438C53.3621 187.628 53.2729 185.001 53.1732 181.755C52.9739 175.274 52.7746 166.3 52.7274 156.398C52.6802 146.497 52.7798 137.528 52.9162 131.037C52.9792 127.791 53.0473 125.168 53.1103 123.354C53.1418 122.456 53.1627 121.758 53.1837 121.265C53.1837 121.035 53.1837 120.856 53.1837 120.721C53.1767 120.66 53.1767 120.598 53.1837 120.537C53.192 120.598 53.192 120.66 53.1837 120.721V121.265C53.1837 121.763 53.1837 122.456 53.1837 123.354C53.1575 125.183 53.1208 127.806 53.0736 131.042C52.9896 137.523 52.9162 146.497 52.9687 156.398C53.0211 166.3 53.1837 175.264 53.3306 181.755C53.4093 184.986 53.4722 187.608 53.5194 189.438C53.5194 190.33 53.5509 191.033 53.5614 191.527C53.5614 191.756 53.5614 191.936 53.5614 192.07C53.5714 192.131 53.5731 192.193 53.5666 192.255Z" fill="#455A64"/>
<path d="M85.3122 44.6311C85.3122 44.6311 74.1918 60.585 73.2476 61.4675C72.3035 62.3499 54.8885 64.1049 54.8885 64.1049C49.5381 62.9582 32.2491 63.3371 28.9864 65.6005C26.1591 67.0962 22.7286 70.5861 20.9609 78.8273C17.9447 92.9266 14.9286 98.1216 20.9609 100.091C23.3726 100.873 25.8583 101.43 28.3832 101.756L28.2153 108.138L59.4783 106.288L57.9047 90.4438C57.7158 85.9916 57.6266 81.355 57.5112 77.2469C59.4678 76.5439 77.6486 70.0028 78.897 69.8333C80.1454 69.6638 92.1208 48.7293 92.1208 48.7293C92.4775 46.2415 85.3122 44.6311 85.3122 44.6311Z" fill="#A03651"/>
<path d="M29.2435 73.4828C29.3169 73.4828 29.149 81.2503 28.871 90.8227C28.593 100.395 28.2993 108.158 28.2206 108.158C28.1419 108.158 28.315 100.39 28.5983 90.8177C28.8815 81.2454 29.17 73.4828 29.2435 73.4828Z" fill="#263238"/>
<path d="M74.816 65.0571C74.399 64.5334 74.0893 63.9397 73.9033 63.3072C73.6355 62.7113 73.418 62.0961 73.2529 61.4675C73.667 61.9922 73.9747 62.5856 74.1603 63.2174C74.4246 63.8151 74.6437 64.4298 74.816 65.0571Z" fill="#263238"/>
<path d="M76.0644 63.701C75.5339 63.417 75.0348 63.083 74.5747 62.7039C74.0523 62.3873 73.6027 61.9735 73.2529 61.4874C73.7816 61.7741 74.2804 62.108 74.7426 62.4845C75.262 62.8047 75.711 63.2179 76.0644 63.701Z" fill="#263238"/>
<path d="M91.4966 50.0006C91.1271 49.8324 90.7757 49.6304 90.4475 49.3973C89.8076 49.0134 88.9211 48.4949 87.9035 47.9764C86.8858 47.4579 85.9416 47.0441 85.2492 46.755C84.8625 46.6234 84.49 46.4564 84.1372 46.2564C84.5449 46.3203 84.9429 46.4308 85.3227 46.5855C87.1891 47.247 88.9534 48.1441 90.5681 49.2528C90.9094 49.464 91.2213 49.7153 91.4966 50.0006Z" fill="#263238"/>
<path d="M28.871 90.8975C28.2196 90.9345 27.5661 90.8722 26.9354 90.713C26.286 90.6279 25.6595 90.4266 25.089 90.1197C25.7331 90.1786 26.3703 90.2921 26.9931 90.4587C27.6346 90.5365 28.2647 90.6836 28.871 90.8975Z" fill="#263238"/>
<path d="M57.7473 63.8805C57.1803 63.9728 56.6198 64.0977 56.0687 64.2544C54.7531 64.6638 53.6098 65.4623 52.8057 66.5333C52.0016 67.6043 51.579 68.8917 51.5996 70.2072C51.6271 70.7532 51.6849 71.2974 51.7727 71.8375C51.6912 71.7084 51.6344 71.5666 51.6048 71.4187C51.4898 71.0252 51.4229 70.6203 51.4055 70.2122C51.3337 68.8463 51.7495 67.4974 52.5855 66.3843C53.4215 65.2712 54.6286 64.4592 56.011 64.0799C56.4224 63.9619 56.8465 63.8883 57.2752 63.8606C57.4325 63.8394 57.5926 63.8462 57.7473 63.8805Z" fill="#263238"/>
<path d="M59.4835 106.308C59.4835 106.383 52.4913 106.851 43.8625 107.36C35.2337 107.868 28.2258 108.227 28.2206 108.158C28.2153 108.088 35.2128 107.614 43.8468 107.101C52.4808 106.587 59.4783 106.238 59.4835 106.308Z" fill="#263238"/>
<path d="M47.0308 63.5664C47.0759 63.6859 47.1075 63.8095 47.1252 63.9353C47.1252 64.06 47.1882 64.2095 47.2092 64.389C47.2301 64.5685 47.2459 64.7829 47.2721 65.0172C47.3344 66.3636 47.1041 67.7078 46.5954 68.9658C45.8512 70.8532 44.4839 72.4606 42.6981 73.5476C42.4427 73.7015 42.1763 73.8381 41.9007 73.9564C41.6248 74.0839 41.3411 74.1955 41.051 74.2904C40.4687 74.4899 39.8655 74.6594 39.2675 74.8638C38.6603 75.053 38.0792 75.3108 37.5365 75.6316C36.9942 75.9804 36.5143 76.4096 36.115 76.9029C35.3671 77.9292 34.6772 78.9926 34.0483 80.0887C33.4447 81.1368 32.5596 82.0141 31.4833 82.6313C30.4646 83.1207 29.3188 83.3198 28.1839 83.2047C27.2048 83.1196 26.2511 82.8609 25.3723 82.4419C24.1093 81.8348 22.9622 81.031 21.9785 80.0638C21.627 79.7297 21.3648 79.4605 21.1917 79.281C21.0937 79.1932 21.0074 79.0945 20.9346 78.9869C21.0378 79.0659 21.1359 79.1509 21.2284 79.2411L22.0519 79.994C23.0505 80.9205 24.1957 81.6926 25.4457 82.2823C26.309 82.676 27.2403 82.9176 28.1943 82.9953C29.28 83.0909 30.3717 82.8902 31.3416 82.417C32.3774 81.8184 33.2266 80.9683 33.8018 79.9541C34.4373 78.8473 35.1378 77.7754 35.8999 76.7433C36.3183 76.2281 36.8213 75.7803 37.3896 75.4172C37.9496 75.0833 38.5503 74.8154 39.1784 74.6195L40.9618 74.0561C41.2466 73.9645 41.5251 73.8563 41.7958 73.732C42.0635 73.6224 42.3214 73.4924 42.5669 73.3432C44.322 72.2923 45.6754 70.7333 46.4276 68.896C46.9461 67.665 47.2011 66.348 47.1777 65.0222C47.1777 64.7879 47.1777 64.5835 47.1462 64.399C47.1147 64.2145 47.099 64.065 47.0833 63.9453C47.0541 63.8207 47.0365 63.6939 47.0308 63.5664Z" fill="#263238"/>
<path d="M58.8698 100.226C58.8698 100.226 58.7492 100.146 58.5184 100.011C58.1888 99.8088 57.8223 99.6667 57.4378 99.5924C56.8192 99.5042 56.1956 99.4509 55.5704 99.4328C54.8413 99.378 53.9968 99.373 53.0788 99.3381C52.0619 99.3217 51.0508 99.1877 50.0679 98.9392C48.9396 98.6343 47.8749 98.1469 46.9206 97.4984C45.8591 96.779 44.9793 95.844 44.3451 94.7613C43.6669 93.5964 43.3063 92.2886 43.296 90.9573C43.2758 89.6651 43.6378 88.3935 44.3407 87.2873C45.0437 86.1811 46.0594 85.2848 47.2721 84.7004C47.8174 84.4415 48.3984 84.2569 48.9978 84.152C49.5577 84.063 50.1245 84.0196 50.6921 84.0223C51.6949 84.0517 52.6986 84.0234 53.6978 83.9376C54.418 83.8938 55.1155 83.681 55.7279 83.3182C56.3403 82.9554 56.8485 82.4539 57.207 81.8586C57.3827 81.5247 57.4929 81.1631 57.5322 80.7917C57.5637 80.5374 57.5637 80.3978 57.5742 80.3978C57.5806 80.4308 57.5806 80.4646 57.5742 80.4975C57.5742 80.5673 57.5742 80.667 57.5742 80.7966C57.5525 81.1796 57.4546 81.5552 57.2857 81.9034C57.0097 82.4546 56.5865 82.9274 56.0582 83.2745C55.3634 83.7377 54.5571 84.0275 53.7135 84.1171C52.7065 84.2172 51.6939 84.2572 50.6816 84.2367C50.126 84.2392 49.5715 84.2859 49.0241 84.3763C48.4496 84.4819 47.8935 84.6632 47.3718 84.9147C46.2057 85.4811 45.2297 86.3462 44.5539 87.4123C43.8781 88.4784 43.5296 89.7029 43.5478 90.9473C43.5607 92.2366 43.9104 93.5026 44.5654 94.6317C45.1779 95.6823 46.0269 96.5914 47.0518 97.294C47.9794 97.9326 49.0156 98.4149 50.1151 98.7199C51.0796 98.9746 52.073 99.1169 53.0736 99.1437C53.9968 99.1885 54.836 99.2085 55.5704 99.2783C56.2006 99.3053 56.828 99.3736 57.4483 99.4827C57.8415 99.5786 58.2106 99.7481 58.5341 99.9812C58.6197 100.038 58.702 100.1 58.7806 100.166C58.8138 100.181 58.844 100.201 58.8698 100.226Z" fill="#263238"/>
<path d="M41.4968 107.524C41.5111 107.168 41.49 106.81 41.4339 106.458C41.2392 105.5 40.6597 104.652 39.8183 104.094C39.5413 103.92 39.2415 103.781 38.9265 103.681C38.5832 103.589 38.2322 103.525 37.8775 103.491C37.0494 103.473 36.2261 103.368 35.4226 103.177C34.9813 103.037 34.5782 102.805 34.2424 102.499C33.9035 102.175 33.6329 101.793 33.445 101.372C33.0654 100.49 32.9475 99.5264 33.1041 98.5853C33.3978 96.6658 34.2843 95.0156 34.4364 93.3903C34.5436 92.6316 34.4701 91.8598 34.2214 91.1318C33.9941 90.5051 33.5691 89.9603 33.0044 89.5713C32.1765 88.9955 31.1475 88.7438 30.1299 88.8683C29.7615 88.9344 29.3999 89.0312 29.0493 89.1575C29.3659 88.9583 29.7236 88.8257 30.0984 88.7686C31.1518 88.5994 32.2327 88.8343 33.1041 89.4217C33.7104 89.8264 34.1702 90.3993 34.4207 91.062C34.6917 91.818 34.7778 92.6228 34.6725 93.4152C34.5204 95.0953 33.6234 96.7655 33.3611 98.6202C33.2104 99.515 33.3193 100.432 33.6758 101.272C33.8513 101.663 34.1002 102.019 34.4102 102.324C34.7156 102.605 35.0829 102.818 35.4855 102.948C36.2717 103.138 37.0771 103.249 37.888 103.277C38.2651 103.313 38.6376 103.385 39 103.491C39.6702 103.711 40.2632 104.104 40.7132 104.625C41.1632 105.146 41.4526 105.775 41.5493 106.443C41.5877 106.711 41.5877 106.982 41.5493 107.25C41.5408 107.343 41.5233 107.435 41.4968 107.524Z" fill="#263238"/>
<path d="M40.4477 79.9391C40.4477 79.9391 40.5579 79.8294 40.8202 79.7546C41.1963 79.6616 41.5942 79.6878 41.9532 79.8294C42.2047 79.9278 42.4304 80.0776 42.6141 80.2682C42.8214 80.4959 42.9528 80.777 42.9918 81.0758C43.0393 81.4194 42.9784 81.7686 42.8169 82.0793C42.6553 82.3899 42.4003 82.648 42.0843 82.8208C41.755 82.9695 41.3863 83.0205 41.026 82.9671C40.6658 82.9137 40.3309 82.7585 40.0648 82.5217C39.8321 82.3145 39.6711 82.045 39.6032 81.7489C39.5511 81.4938 39.5637 81.2306 39.6399 80.9811C39.7439 80.6234 39.9757 80.3114 40.2956 80.0987C40.4037 80.012 40.5376 79.9597 40.6785 79.9491C40.6785 79.9491 40.5526 80.0239 40.3586 80.1784C40.095 80.402 39.9116 80.6984 39.834 81.026C39.7666 81.2606 39.7691 81.5084 39.8414 81.7417C39.9136 81.9751 40.0527 82.1847 40.2431 82.3472C40.4729 82.5441 40.7586 82.6724 41.0647 82.7158C41.3707 82.7593 41.6834 82.716 41.9637 82.5915C42.2333 82.4415 42.4513 82.2203 42.591 81.9548C42.7307 81.6892 42.7861 81.3908 42.7505 81.0958C42.7204 80.8548 42.6241 80.6257 42.4713 80.4314C42.3184 80.2371 42.1144 80.0845 41.8797 79.989C41.5536 79.8405 41.1877 79.7901 40.8306 79.8444C40.5894 79.8942 40.4582 79.9591 40.4477 79.9391Z" fill="#263238"/>
<path d="M24.7219 101.193C24.6642 101.193 24.9107 100.315 24.9684 98.8894C24.9891 98.5024 24.9891 98.1147 24.9684 97.7277C24.9684 97.309 24.8845 96.8652 24.8268 96.3966C24.6528 95.3889 24.3734 94.4001 23.9928 93.4451C23.5955 92.498 23.0963 91.5924 22.503 90.7429C22.2374 90.3769 21.952 90.0241 21.648 89.686C21.3904 89.3827 21.1155 89.0931 20.8245 88.8185C19.7754 87.8214 18.9676 87.3228 19.0043 87.2879C19.2037 87.3754 19.392 87.4841 19.5656 87.612C19.7831 87.7438 19.9916 87.8887 20.1898 88.0457C20.4593 88.2462 20.7167 88.4609 20.9609 88.6889C21.2656 88.9579 21.5529 89.2443 21.8211 89.5464C22.1338 89.8893 22.4279 90.247 22.7024 90.6183C23.3156 91.4779 23.8308 92.3971 24.2393 93.3604C24.6255 94.3266 24.9016 95.3295 25.0628 96.3517C25.1295 96.8013 25.1698 97.254 25.1835 97.7078C25.2103 98.1013 25.2103 98.4959 25.1835 98.8894C25.1643 99.2134 25.1275 99.5362 25.0733 99.8566C25.0415 100.1 24.9924 100.342 24.9264 100.58C24.8853 100.791 24.8165 100.997 24.7219 101.193Z" fill="#263238"/>
<path d="M79.1488 69.6339C78.88 69.5427 78.6188 69.4327 78.3672 69.3048C77.8689 69.0855 77.1502 68.7714 76.227 68.4523C75.1554 68.0749 74.0439 67.8091 72.9119 67.6596C71.5303 67.4713 70.1234 67.5373 68.768 67.854C67.401 68.1564 66.1374 68.7843 65.0962 69.6788C64.2556 70.408 63.6131 71.3197 63.2235 72.3361C62.9675 73.0232 62.8604 73.7524 62.9088 74.4799C62.9508 74.9785 63.0347 75.2776 63.0085 75.2826C62.9822 75.2876 62.9718 75.2178 62.9298 75.0832C62.8738 74.8883 62.8318 74.6901 62.8039 74.4899C62.7114 73.7441 62.7938 72.9881 63.0452 72.2763C63.4169 71.2161 64.0647 70.2625 64.9283 69.5043C65.9843 68.5747 67.274 67.9189 68.6736 67.5998C70.0641 67.2782 71.5073 67.2172 72.9224 67.4203C74.0688 67.586 75.1916 67.8754 76.269 68.2828C76.9879 68.5524 77.6886 68.8637 78.3672 69.2151C78.6085 69.3397 78.7973 69.4394 78.918 69.5142C79.0021 69.54 79.0804 69.5806 79.1488 69.6339Z" fill="#263238"/>
<path d="M83.4448 47.3084C83.4448 47.3084 83.4973 47.3433 83.5864 47.428C83.7175 47.5449 83.8386 47.6716 83.9484 47.8069C84.3633 48.3019 84.691 48.8575 84.9188 49.4522C85.2618 50.3379 85.4031 51.2827 85.3332 52.2242C85.2523 53.3808 84.8604 54.4984 84.1949 55.4698C83.5127 56.435 82.5733 57.2109 81.4725 57.7183C80.5862 58.1394 79.6187 58.3837 78.6295 58.4362C77.9647 58.4767 77.2974 58.4178 76.6519 58.2617C76.4734 58.2223 76.2981 58.1706 76.1274 58.1072C76.012 58.0673 75.9543 58.0424 75.9595 58.0324C76.8179 58.226 77.7014 58.2999 78.5823 58.2518C79.5412 58.176 80.4751 57.9219 81.3309 57.5039C82.3882 57.0071 83.2919 56.2582 83.9536 55.3302C84.5346 54.4762 84.9052 53.5085 85.0378 52.4994C85.1704 51.4902 85.0616 50.4656 84.7194 49.502C84.4132 48.714 83.9835 47.9744 83.4448 47.3084Z" fill="#263238"/>
<path d="M49.1972 63.4966C47.6827 63.6391 46.1604 63.6941 44.6389 63.6611C43.1188 63.7152 41.5967 63.6836 40.0806 63.5664C41.5951 63.4239 43.1173 63.3689 44.6389 63.4019C46.1589 63.3478 47.681 63.3794 49.1972 63.4966Z" fill="#263238"/>
</svg>
